<svg width="24" height="24" viewBox="0 0 24 24" fill="none" xmlns="http://www.w3.org/2000/svg">
<path d="M22.4782 12C22.4782 11.6775 22.65 11.2463 22.8165 10.8285C23.0985 10.1213 23.4187 9.31875 23.1457 8.51325C22.8652 7.68525 22.1025 7.21425 21.4305 6.798C21.048 6.56175 20.6542 6.31725 20.4675 6.072C20.2792 5.8245 20.163 5.40825 20.0392 4.96725C19.833 4.2285 19.5975 3.39075 18.8767 2.88825C18.1732 2.39925 17.2867 2.44275 16.503 2.48025C16.0365 2.50275 15.5542 2.52675 15.2295 2.4255C14.9332 2.33325 14.5897 2.06625 14.226 1.78275C13.605 1.29825 12.9007 0.75 12 0.75C11.0992 0.75 10.395 1.29825 9.77325 1.78275C9.41025 2.06625 9.06675 2.33325 8.76975 2.4255C8.445 2.526 7.96275 2.50275 7.49625 2.48025C6.71475 2.44425 5.826 2.4 5.1225 2.8905C4.40175 3.3915 4.167 4.23 3.96075 4.96875C3.83625 5.40975 3.72 5.826 3.53175 6.0735C3.34575 6.318 2.95125 6.56175 2.5695 6.79725C1.8975 7.21425 1.13475 7.686 0.853496 8.51325C0.581246 9.31875 0.900746 10.1213 1.18275 10.8285C1.34925 11.2463 1.52175 11.6775 1.52175 12C1.52175 12.3225 1.35 12.7537 1.1835 13.1715C0.901496 13.8787 0.581246 14.6813 0.854246 15.4867C1.13475 16.3147 1.8975 16.7858 2.5695 17.202C2.952 17.4383 3.34575 17.6827 3.5325 17.928C3.72075 18.1755 3.837 18.5918 3.96075 19.0328C4.167 19.7715 4.4025 20.6093 5.12325 21.1117C5.82675 21.6007 6.71175 21.5565 7.497 21.5198C7.96425 21.498 8.44725 21.474 8.7705 21.5745C9.06675 21.6667 9.41025 21.9338 9.774 22.2172C10.395 22.7017 11.0992 23.25 12 23.25C12.9007 23.25 13.605 22.7017 14.2267 22.2172C14.5897 21.9338 14.9332 21.6667 15.2302 21.5745C15.555 21.474 16.0365 21.4965 16.5037 21.5198C17.2852 21.5573 18.1747 21.6007 18.8775 21.1102C19.5982 20.6085 19.833 19.7708 20.04 19.032C20.1637 18.591 20.28 18.1747 20.4682 17.9272C20.6542 17.6828 21.0487 17.439 21.4305 17.2028C22.1025 16.7857 22.8652 16.314 23.1465 15.4867C23.4187 14.6813 23.0992 13.8787 22.8172 13.1715C22.6507 12.7537 22.4782 12.3225 22.4782 12ZM21.4237 13.7265C21.6195 14.2163 21.8205 14.7233 21.7252 15.0045C21.6172 15.3218 21.1207 15.6293 20.6407 15.9263C20.1435 16.2338 19.6282 16.5525 19.2742 17.0182C18.9127 17.4937 18.7515 18.069 18.5955 18.6262C18.45 19.1467 18.2985 19.6853 18.0195 19.8795C17.736 20.0775 17.1457 20.049 16.5757 20.0205C15.9802 19.9913 15.3615 19.962 14.784 20.1413C14.2267 20.3145 13.758 20.6805 13.3035 21.033C12.8317 21.402 12.3855 21.75 12 21.75C11.6145 21.75 11.1682 21.402 10.6957 21.0338C10.242 20.6805 9.77325 20.3153 9.21525 20.142C8.8545 20.0303 8.47875 19.9995 8.1015 19.9995C7.875 19.9995 7.6485 20.0115 7.42425 20.0212C6.85425 20.0497 6.264 20.0775 5.9805 19.8802C5.7015 19.6852 5.55075 19.1475 5.4045 18.627C5.2485 18.0705 5.08725 17.4945 4.72575 17.019C4.371 16.5532 3.8565 16.2338 3.3585 15.9263C2.8785 15.6293 2.382 15.321 2.27475 15.0045C2.1795 14.7233 2.38125 14.2163 2.57625 13.7265C2.78475 13.203 3.02175 12.6097 3.02175 12C3.02175 11.3903 2.7855 10.797 2.57625 10.2735C2.3805 9.78375 2.1795 9.27675 2.27475 8.9955C2.38275 8.67825 2.87925 8.37075 3.35925 8.07375C3.8565 7.76625 4.37175 7.4475 4.72575 6.98175C5.08725 6.50625 5.2485 5.931 5.4045 5.37375C5.55 4.85325 5.70075 4.31475 5.9805 4.1205C6.26325 3.92175 6.85275 3.94875 7.42425 3.9795C8.01975 4.00875 8.6385 4.038 9.216 3.85875C9.77325 3.6855 10.242 3.3195 10.6965 2.967C11.1682 2.598 11.6145 2.25 12 2.25C12.3855 2.25 12.8317 2.598 13.3042 2.96625C13.758 3.3195 14.2267 3.68475 14.7847 3.858C15.3622 4.03725 15.9787 4.0065 16.5765 3.97875C17.1472 3.9495 17.7367 3.92175 18.0202 4.11975C18.2992 4.31475 18.45 4.8525 18.5962 5.373C18.7522 5.9295 18.9135 6.5055 19.275 6.981C19.6297 7.44675 20.1442 7.76625 20.6422 8.07375C21.1222 8.37075 21.6187 8.679 21.726 8.9955C21.8212 9.27675 21.6195 9.78375 21.4245 10.2735C21.216 10.7963 20.979 11.3895 20.979 12C20.979 12.6105 21.2152 13.203 21.4237 13.7265Z" fill="#101010"/>
<path d="M9 10.5C9.82843 10.5 10.5 9.82843 10.5 9C10.5 8.17157 9.82843 7.5 9 7.5C8.17157 7.5 7.5 8.17157 7.5 9C7.5 9.82843 8.17157 10.5 9 10.5Z" fill="#101010"/>
<path d="M15 16.5C15.8284 16.5 16.5 15.8284 16.5 15C16.5 14.1716 15.8284 13.5 15 13.5C14.1716 13.5 13.5 14.1716 13.5 15C13.5 15.8284 14.1716 16.5 15 16.5Z" fill="#101010"/>
<path d="M14.6364 7.60758C14.2801 7.39458 13.8204 7.51008 13.6074 7.86483L9.10738 15.3648C8.89438 15.7203 9.00913 16.1808 9.36463 16.3938C9.48463 16.4658 9.61813 16.5003 9.74938 16.5003C10.0044 16.5003 10.2526 16.3706 10.3929 16.1366L14.8929 8.63658C15.1066 8.28108 14.9911 7.82058 14.6364 7.60758Z" fill="#101010"/>
</svg>
