<svg width="24" height="24" viewBox="0 0 24 24" fill="none" xmlns="http://www.w3.org/2000/svg">
<path d="M14.25 19.5001V15.0001C14.25 14.8012 14.171 14.6104 14.0303 14.4698C13.8897 14.3291 13.6989 14.2501 13.5 14.2501H10.5C10.3011 14.2501 10.1103 14.3291 9.96967 14.4698C9.82902 14.6104 9.75 14.8012 9.75 15.0001V19.5001C9.75 19.699 9.67098 19.8898 9.53033 20.0304C9.38968 20.1711 9.19891 20.2501 9 20.2501H4.5C4.30109 20.2501 4.11032 20.1711 3.96967 20.0304C3.82902 19.8898 3.75 19.699 3.75 19.5001V10.8282C3.75168 10.7244 3.77411 10.622 3.81597 10.527C3.85783 10.432 3.91828 10.3464 3.99375 10.2751L11.4937 3.45947C11.632 3.33298 11.8126 3.26283 12 3.26283C12.1874 3.26283 12.368 3.33298 12.5062 3.45947L20.0062 10.2751C20.0817 10.3464 20.1422 10.432 20.184 10.527C20.2259 10.622 20.2483 10.7244 20.25 10.8282V19.5001C20.25 19.699 20.171 19.8898 20.0303 20.0304C19.8897 20.1711 19.6989 20.2501 19.5 20.2501H15C14.8011 20.2501 14.6103 20.1711 14.4697 20.0304C14.329 19.8898 14.25 19.699 14.25 19.5001Z" stroke="#101010" stroke-width="2" stroke-linecap="round" stroke-linejoin="round"/>
</svg>
